<?xml version="1.0" encoding="UTF-8" standalone="no"?>
<!-- Created with Inkscape (http://www.inkscape.org/) -->

<svg
   xmlns:dc="http://purl.org/dc/elements/1.1/"
   xmlns:cc="http://creativecommons.org/ns#"
   xmlns:rdf="http://www.w3.org/1999/02/22-rdf-syntax-ns#"
   xmlns:svg="http://www.w3.org/2000/svg"
   xmlns="http://www.w3.org/2000/svg"
   xmlns:sodipodi="http://sodipodi.sourceforge.net/DTD/sodipodi-0.dtd"
   xmlns:inkscape="http://www.inkscape.org/namespaces/inkscape"
   width="197.38705mm"
   height="196.74823mm"
   viewBox="0 0 197.38705 196.74823"
   version="1.1"
   id="svg35"
   inkscape:version="0.92.2 (5c3e80d, 2017-08-06)"
   sodipodi:docname="blight_logo3.svg">
  <defs
     id="defs29" />
  <sodipodi:namedview
     id="base"
     pagecolor="#ffffff"
     bordercolor="#666666"
     borderopacity="1.0"
     inkscape:pageopacity="0.0"
     inkscape:pageshadow="2"
     inkscape:zoom="1.4"
     inkscape:cx="449.09926"
     inkscape:cy="239.61001"
     inkscape:document-units="mm"
     inkscape:current-layer="layer1"
     showgrid="false"
     inkscape:window-width="1157"
     inkscape:window-height="919"
     inkscape:window-x="156"
     inkscape:window-y="156"
     inkscape:window-maximized="0" />
  <metadata
     id="metadata32">
    <rdf:RDF>
      <cc:Work
         rdf:about="">
        <dc:format>image/svg+xml</dc:format>
        <dc:type
           rdf:resource="http://purl.org/dc/dcmitype/StillImage" />
        <dc:title />
      </cc:Work>
    </rdf:RDF>
  </metadata>
  <g
     inkscape:label="Layer 1"
     inkscape:groupmode="layer"
     id="layer1"
     transform="translate(-6.2874864,-50.81655)">
    <g
       id="g48"
       transform="matrix(0.76100989,0,0,0.76100989,-35.386909,-37.718389)">
      <path
         style="fill:#30d040;stroke-width:0.26458332"
         d="m 132.25986,374.70623 c -12.97532,-1.15729 -23.68396,-4.12863 -34.308614,-9.51967 -6.533782,-3.31529 -12.037086,-7.15297 -16.932552,-11.80775 -2.132705,-2.02785 -2.664225,-2.68035 -2.664225,-3.27066 0,-0.92921 1.75021,-6.04442 3.476805,-10.16141 2.617528,-6.24137 5.533982,-11.60005 9.895493,-18.18194 4.10406,-6.19338 6.957187,-9.75956 13.044223,-16.30426 3.00262,-3.22837 3.31559,-3.81387 2.25597,-4.22048 -0.24402,-0.0936 -0.98024,-0.0267 -1.63605,0.14866 -2.09256,0.55967 -2.05449,-0.34326 0.043,-1.01928 1.2072,-0.38908 1.20535,-0.46199 -0.10381,-4.1065 -1.11408,-3.10143 -1.22144,-5.98605 -0.28899,-7.76536 2.05767,-3.92649 5.84426,-5.47214 11.87683,-4.848 1.98716,0.20559 2.71156,0.0353 2.71156,-0.6373 0,-0.21564 -0.24507,-1.11956 -0.54461,-2.0087 -0.36008,-1.06891 -0.45569,-1.70555 -0.28217,-1.87906 0.40041,-0.40041 1.24623,1.18799 1.60578,3.01557 0.39474,2.00639 0.69534,2.13929 4.90954,2.17058 3.45696,0.0257 5.01429,-0.28843 6.11214,-1.23277 0.62449,-0.53716 0.73162,-0.90401 1.03455,-3.54276 0.18585,-1.61895 0.41828,-3.07357 0.5165,-3.2325 0.45401,-0.7346 0.65081,0.18995 0.49817,2.34035 -0.11632,1.63884 -0.0745,2.38571 0.14097,2.5189 0.17324,0.10707 2.40415,-1.07044 5.13502,-2.71034 12.85424,-7.71901 25.71943,-13.68504 43.18348,-20.02566 12.74608,-4.62769 25.58978,-10.00132 26.17754,-10.95234 0.085,-0.13761 -0.10947,-0.6978 -0.43226,-1.24489 -0.90182,-1.52847 -0.79862,-3.98668 0.26042,-6.20321 1.82479,-3.81924 3.96572,-5.18442 8.65538,-5.51914 2.9215,-0.20852 3.23528,-0.3436 4.11876,-1.77311 0.30467,-0.49296 0.72283,-0.8963 0.92924,-0.8963 0.42822,0 0.50947,0.6796 0.11071,0.92604 -0.14552,0.0899 -0.26458,0.44027 -0.26458,0.77851 0,0.80432 0.28683,0.8696 5.46735,1.24428 l 4.27672,0.30931 2.01499,-1.25589 c 3.06643,-1.91122 3.66291,-2.48144 3.49162,-3.33788 -0.1924,-0.96201 0.0286,-1.11487 0.88243,-0.61048 0.61472,0.36313 0.80404,0.37129 1.37316,0.0592 1.27828,-0.70101 5.50015,-3.80571 5.6335,-4.14279 0.0742,-0.18765 -0.007,-0.56919 -0.18144,-0.84786 -0.44423,-0.71133 -0.0984,-0.92529 0.85645,-0.52979 0.76063,0.31506 0.90506,0.27336 2.24183,-0.64732 0.78585,-0.54123 1.91637,-1.61601 2.51226,-2.3884 1.14994,-1.49054 2.44071,-2.50869 4.00516,-3.15926 2.02846,-0.84353 12.78421,-11.02508 18.89259,-17.88401 10.79595,-12.12246 19.02851,-24.26497 25.96552,-38.29748 1.67257,-3.38336 3.14095,-6.15156 3.26306,-6.15156 0.29273,0 2.80203,4.93446 4.37279,8.59895 3.64638,8.50678 6.4013,20.14745 6.92202,29.24842 0.0918,1.60483 0.26757,2.98007 0.39055,3.05608 0.32388,0.20017 0.28442,10.62148 -0.041,10.82259 -0.14552,0.0899 -0.26586,0.8411 -0.26742,1.66926 -0.004,2.19577 -0.68667,8.28001 -1.45684,12.98639 -2.20006,13.44425 -6.40521,26.84648 -12.78925,40.76058 -1.59319,3.47237 -2.05706,4.73013 -1.87204,5.07584 0.40756,0.76153 0.28734,1.03326 -0.62591,1.41485 -0.63847,0.26677 -1.04015,0.72356 -1.50046,1.70634 l -0.62858,1.34205 1.58779,3.1088 c 1.37275,2.68778 1.68353,3.12015 2.29476,3.19258 0.40667,0.0482 1.03314,-0.14849 1.47486,-0.46303 0.89775,-0.63925 1.34767,-0.6965 1.34767,-0.17149 0,0.20641 -0.41822,0.63377 -0.92939,0.94969 -1.58499,0.97958 -1.58732,1.20883 -0.0433,4.26205 0.76413,1.51104 1.76874,3.61892 2.23248,4.68419 l 0.84315,1.93685 1.05408,-0.0848 c 0.57975,-0.0466 1.0818,0.0343 1.11568,0.17982 0.0529,0.22738 -0.67378,0.72279 -1.46946,1.00174 -0.13171,0.0462 -0.25959,1.22439 -0.28417,2.61827 -0.0383,2.16962 -0.14879,2.74706 -0.76798,4.01264 -1.02606,2.0972 -2.73275,3.74075 -5.00502,4.81984 -1.9566,0.92919 -4.86682,1.68694 -6.53564,1.70173 -1.58933,0.0141 -2.13124,0.27228 -2.29552,1.09371 -0.19607,0.98033 -0.5825,0.96697 -0.96002,-0.0332 -0.34254,-0.9075 -0.24156,-0.88281 -5.34342,-1.30601 -4.40111,-0.36506 -4.5434,-0.36135 -4.72942,0.12341 -0.20649,0.53809 0.31649,3.00793 0.79798,3.76857 0.377,0.59558 0.29306,1.117 -0.17984,1.117 -0.39442,0 -1.3656,-2.11469 -1.81864,-3.96001 -0.40905,-1.66614 -0.44735,-1.71748 -1.459,-1.95557 -1.19621,-0.28152 -0.73026,-0.69614 -5.47264,4.86968 -14.69304,17.24425 -33.38174,33.00669 -52.22594,44.04843 -20.79677,12.18585 -42.38552,19.66754 -64.16145,22.23548 -4.16371,0.491 -17.57017,0.72358 -21.50086,0.37299 z m 2.5739,-44.58533 c 4.51674,-1.17646 8.08633,-4.82995 9.14041,-9.35525 1.15336,-4.95149 -1.51714,-10.43291 -6.20784,-12.74214 -10.2262,-5.03434 -21.66662,5.71217 -16.88748,15.86319 1.33488,2.83531 4.80616,5.61448 7.93126,6.34992 1.60102,0.37678 4.33443,0.32427 6.02365,-0.11572 z m -5.59017,-7.40342 c -2.20963,-1.32447 -2.8558,-4.29161 -1.42569,-6.54664 1.08973,-1.71834 2.49563,-2.40203 4.65644,-2.26444 2.49825,0.15907 4.02648,1.51343 4.48886,3.97813 0.34683,1.84874 -1.10401,4.36214 -2.96746,5.14074 -1.40493,0.58702 -3.48398,0.45236 -4.75215,-0.30779 z m 29.95011,-4.7288 c 1.89899,-0.86939 3.4118,-2.31427 4.27909,-4.08694 1.01995,-2.08471 1.02804,-4.85872 0.0198,-6.79088 -0.88399,-1.69406 -2.36799,-3.12016 -4.04333,-3.88559 -1.82446,-0.83356 -5.01944,-0.85079 -6.79335,-0.0366 -1.74863,0.80255 -3.52331,2.53743 -4.37988,4.28166 -0.97819,1.99189 -1.01846,4.84097 -0.094,6.65203 2.12089,4.15504 6.79579,5.79646 11.0117,3.86636 z m -5.26141,-1.75674 c -1.96663,-0.58948 -3.71834,-2.59913 -4.02022,-4.6122 -0.66296,-4.42093 4.37697,-8.14238 8.47886,-6.26073 2.75871,1.2655 4.01547,3.92695 3.19198,6.75965 -0.91332,3.14171 -4.48519,5.06209 -7.65062,4.11328 z m 116.05772,-36.50757 c 5.50652,-2.06025 6.92211,-8.7466 2.77919,-13.12713 -1.83027,-1.93524 -3.44295,-2.60234 -6.29599,-2.60441 -1.93033,-0.001 -2.441,0.0991 -3.60451,0.70974 -6.53941,3.43176 -5.36531,12.89009 1.88472,15.18298 1.58452,0.50111 3.63515,0.438 5.23659,-0.16118 z m -5.1043,-2.19751 c -0.50932,-0.16144 -1.46511,-0.83389 -2.12399,-1.49434 -4.44281,-4.45349 -0.21736,-11.31523 5.84872,-9.49778 2.16999,0.65014 4.20608,3.32004 4.20871,5.51883 0.004,3.3025 -2.48741,5.83924 -5.68448,5.78801 -0.7276,-0.0117 -1.73963,-0.15328 -2.24896,-0.31472 z m -14.20834,-8.9157 c 1.93096,-0.59642 4.42186,-2.29426 5.55964,-3.78958 2.77204,-3.6431 3.18444,-8.38924 1.09232,-12.57114 -2.17664,-4.35084 -6.34698,-6.91979 -11.23333,-6.91979 -4.86265,0 -8.90851,2.61108 -10.88292,7.02352 -0.81978,1.83205 -0.98553,5.37752 -0.35953,7.69018 1.09846,4.058 4.64104,7.54231 8.8655,8.71966 1.88206,0.52453 4.98597,0.45634 6.95832,-0.15285 z m -5.01147,-6.60243 c -3.24998,-0.76381 -4.99657,-4.2869 -3.54034,-7.14134 0.62402,-1.22318 1.59666,-1.96637 3.10501,-2.37253 2.13131,-0.5739 4.75805,0.67406 5.73002,2.72233 0.52869,1.11414 0.55737,3.05808 0.0626,4.24229 -0.43021,1.02965 -1.80539,2.15826 -2.93849,2.41162 -1.46172,0.32684 -1.58403,0.3338 -2.41877,0.13763 z M 65.559299,333.3984 c -1.409627,-2.15137 -4.764482,-10.20216 -6.213352,-14.91046 -2.137977,-6.94764 -4.010227,-17.4084 -4.010227,-22.4062 0,-0.82905 -0.119063,-1.58094 -0.264584,-1.67088 -0.35721,-0.22077 -0.35721,-10.62715 0,-10.84792 0.145521,-0.0899 0.265858,-0.8411 0.267416,-1.66926 0.0041,-2.19546 0.686387,-8.27744 1.458574,-13.00245 3.039739,-18.60018 10.270761,-38.06781 20.888421,-56.23662 3.045458,-5.21135 9.12959,-14.39897 12.643839,-19.09341 11.280344,-15.06862 26.904584,-30.71442 41.867794,-41.92557 26.54028,-19.88526 55.68574,-31.93318 84.53437,-34.94416 5.04602,-0.52667 18.50069,-0.44871 23.28333,0.1349 8.04658,0.9819 16.30904,2.99503 23.15104,5.64072 7.02812,2.71764 15.36387,7.45504 20.66527,11.74453 2.80374,2.26858 6.18994,5.55565 6.18994,6.00874 0,0.58271 -2.80484,7.50904 -4.78202,11.80881 -13.68785,29.76703 -39.07002,55.97867 -71.73592,74.08023 -11.30247,6.26318 -22.28089,11.1363 -37.64977,16.71205 -3.4925,1.26706 -8.43359,3.13501 -10.9802,4.151 -31.1434,12.42485 -57.52488,30.05659 -75.420459,50.40634 -9.050605,10.29179 -17.136858,22.71537 -21.989506,33.7843 -0.580162,1.32336 -1.153863,2.50813 -1.274889,2.63282 -0.121027,0.1247 -0.404107,-0.0542 -0.629067,-0.39751 z"
         id="path54"
         inkscape:connector-curvature="0" />
      <path
         style="fill:#5b4e22;stroke-width:0.26458332"
         d="m 131.99527,374.44136 c -3.4778,-0.3098 -8.23199,-0.97697 -11.38744,-1.59803 -15.41844,-3.0347 -29.468713,-10.05605 -39.69864,-19.83865 l -2.648743,-2.53292 0.734421,-2.36586 c 1.147731,-3.69731 2.926425,-8.07284 5.165726,-12.70753 5.392692,-11.16127 11.335612,-19.7064 20.745306,-29.82901 2.35961,-2.53838 2.69999,-2.81338 2.99049,-2.41609 0.45053,0.61614 1.14974,3.80585 1.14974,5.24495 0,1.99954 -0.004,2.00244 -2.62873,1.8324 -1.70821,-0.11067 -2.37581,-0.063 -2.52625,0.18043 -0.32455,0.52513 0.38923,0.79241 2.12785,0.7968 0.94871,0.002 1.8094,0.15492 2.10853,0.37364 0.4938,0.36108 0.4904,0.4018 -0.14787,1.76718 -0.35932,0.76867 -1.21693,2.21642 -1.90579,3.21721 -1.59919,2.32334 -7.039634,8.93352 -7.352655,8.93352 -0.250759,0 -0.567118,-0.32038 -1.175668,-1.19062 -0.293489,-0.4197 -0.438319,-0.46184 -0.700114,-0.20368 -0.263345,0.25969 -0.205512,0.59144 0.286081,1.64101 l 0.616156,1.31552 -1.127874,1.73113 c -2.709378,4.15851 -3.174309,7.10441 -1.618368,10.25432 2.607212,5.27815 5.444172,6.08088 12.888672,3.64694 1.9108,-0.62473 3.64635,-1.0698 3.85677,-0.98905 0.36991,0.14194 0.83057,1.19515 1.5737,3.59789 0.19567,0.63268 0.47484,1.1424 0.62036,1.1327 0.51032,-0.034 0.42241,-1.33615 -0.21368,-3.16524 -0.35312,-1.0154 -0.56828,-1.96554 -0.47812,-2.11142 0.22281,-0.36051 2.85949,-1.01134 5.57541,-1.37622 2.55201,-0.34286 2.92159,-0.15009 2.92159,1.52391 0,1.21081 0.772,4.52105 1.10194,4.72496 0.61188,0.37817 0.75603,-0.37539 0.36154,-1.88997 -0.22283,-0.85549 -0.40514,-2.20254 -0.40514,-2.99344 v -1.43799 l 1.81097,0.15183 c 0.99604,0.0835 2.53316,0.44527 3.41582,0.80393 1.97846,0.80392 5.35746,2.95929 5.35396,3.41513 -0.001,0.18484 -0.30288,0.98116 -0.6699,1.76961 -0.48387,1.03948 -0.58736,1.51223 -0.37648,1.71979 0.33918,0.33383 0.89017,-0.27471 1.47763,-1.63198 0.2047,-0.47294 0.56548,-0.85989 0.80174,-0.85989 0.71902,0 8.55917,7.19133 8.55917,7.85085 0,0.6083 -0.95578,2.28795 -1.69404,2.97704 -0.71279,0.66531 -0.90842,1.34294 -0.38771,1.34294 0.51279,0 1.93869,-0.99456 2.82964,-1.97365 0.46885,-0.51522 0.93973,-0.93677 1.04641,-0.93677 0.10669,0 0.93394,0.64535 1.83834,1.43411 0.9044,0.78875 2.39181,1.99781 3.30534,2.68678 2.38756,1.80066 2.38281,1.79178 1.77781,3.32667 -0.28253,0.71681 -0.5137,1.54616 -0.5137,1.84301 0,0.68148 1.38193,2.08652 2.05221,2.08652 0.44179,0 0.50543,-0.20145 0.50543,-1.6001 0,-2.40256 0.29735,-2.56714 2.74216,-1.51779 1.7545,0.75307 2.2597,0.8494 4.50259,0.85859 2.39062,0.01 2.63301,-0.0423 4.51172,-0.97043 3.05097,-1.50718 4.97777,-3.75045 4.99466,-5.81503 0.0123,-1.50089 0.40135,-1.96052 2.05152,-2.42353 0.85848,-0.24088 2.12735,-0.43796 2.81969,-0.43796 1.0559,0 1.24468,-0.0746 1.1711,-0.46302 -0.11722,-0.61881 -1.44,-0.73477 -3.7459,-0.32839 -1.08562,0.19132 -1.9067,0.22281 -2.05086,0.0786 -0.3209,-0.32089 -1.08185,-6.20683 -0.98098,-7.58779 0.0714,-0.97801 0.15761,-1.10107 0.82449,-1.17752 0.40958,-0.047 1.03047,0.10187 1.37975,0.33073 0.62411,0.40893 1.44742,0.56047 1.44742,0.26641 0,-0.50517 -0.69533,-1.23008 -1.87774,-1.95762 -1.2745,-0.78421 -1.34691,-0.88632 -1.19066,-1.67895 0.39527,-2.00508 3.07246,-6.22657 5.90239,-9.30712 1.62868,-1.7729 1.80345,-1.77329 4.20729,-0.009 0.23583,0.17305 0.45551,0.15562 0.66379,-0.0527 0.23869,-0.23868 0.0257,-0.60096 -0.91287,-1.55303 l -1.22418,-1.24172 1.82661,-2.0129 c 1.00464,-1.10709 2.7873,-2.96197 3.96146,-4.12195 l 2.13484,-2.10906 0.8613,0.3562 c 2.19823,0.90909 3.76374,1.3704 4.40021,1.2966 1.03827,-0.12039 0.8765,-0.83442 -0.23161,-1.0223 -0.95984,-0.16274 -3.70417,-1.4558 -3.70417,-1.74531 0,-0.0906 0.68461,-0.93493 1.52136,-1.87639 0.83674,-0.94146 2.16136,-2.50248 2.9436,-3.46893 1.68134,-2.07728 1.96285,-2.27262 2.70369,-1.87614 0.91671,0.49061 1.26956,-0.12475 0.52561,-0.91665 l -0.60665,-0.64575 0.94811,-1.54056 c 3.54941,-5.76733 3.61437,-11.74381 0.16516,-15.19302 -0.68657,-0.68657 -1.733,-1.49558 -2.32539,-1.79779 -1.35568,-0.69162 -1.43082,-0.82336 -1.04803,-1.8375 0.23748,-0.62916 0.23885,-0.90283 0.006,-1.136 -0.23318,-0.23317 -0.44433,-0.0747 -0.8765,0.65776 -0.6356,1.07726 -0.78491,1.10499 -3.0306,0.56282 -0.87312,-0.2108 -2.95542,-0.57432 -4.62733,-0.80782 -1.67191,-0.2335 -3.13043,-0.48053 -3.24115,-0.54896 -0.11071,-0.0684 -0.2013,-0.82474 -0.2013,-1.68069 0,-1.54382 -0.37528,-2.25623 -0.81928,-1.55525 -0.12702,0.20055 -0.23277,0.85607 -0.235,1.45671 -0.002,0.60065 -0.16742,1.22767 -0.36709,1.39338 -0.49969,0.4147 -5.53335,-0.27744 -8.69894,-1.19612 -0.5797,-0.16824 -0.59008,-0.95446 -0.0342,-2.58604 0.29527,-0.86656 0.34367,-1.34389 0.15535,-1.53221 -0.45116,-0.45115 -0.75122,-0.0485 -1.22675,1.6463 -0.24844,0.88543 -0.62834,1.67765 -0.84422,1.76049 -0.54051,0.20741 -3.95632,-1.52361 -5.32986,-2.70099 -1.10743,-0.94929 -2.44864,-2.70062 -2.79455,-3.64909 -0.12768,-0.35008 0.19193,-0.86878 1.17729,-1.91065 0.91096,-0.96321 1.29888,-1.56998 1.18817,-1.85848 -0.13533,-0.35266 -0.39691,-0.23367 -1.48022,0.67333 -0.72372,0.60592 -1.42537,1.03399 -1.55924,0.95126 -0.13387,-0.0827 -0.38133,-0.9425 -0.54991,-1.91058 -0.35183,-2.02036 -0.97876,-3.38147 -1.99342,-4.32789 -1.03496,-0.96534 -3.05503,-0.88945 -5.77848,0.21709 -1.13878,0.46268 -2.25003,0.84124 -2.46944,0.84124 -1.09228,0 0.20369,-0.87068 4.41046,-2.96311 8.86405,-4.40893 16.89842,-7.79525 28.43991,-11.98681 10.51475,-3.81868 20.93553,-8.05859 24.59745,-10.00797 l 1.29266,-0.68814 1.10372,1.01738 c 0.60705,0.55956 2.04459,1.70404 3.19453,2.5433 1.14994,0.83926 2.41257,1.82287 2.80584,2.1858 0.66528,0.61397 0.68939,0.70945 0.3466,1.37233 -0.20263,0.39184 -0.85181,1.32398 -1.44263,2.07142 -0.59082,0.74744 -1.07421,1.48155 -1.07421,1.63135 0,0.94094 1.94128,-0.70223 3.05294,-2.58412 0.27001,-0.45709 0.65343,-0.89344 0.85205,-0.96966 0.42431,-0.16282 5.5186,4.67734 5.77579,5.48766 0.13411,0.42256 -0.13617,0.80681 -1.26245,1.79474 -1.7951,1.57458 -3.05771,3.33312 -2.67089,3.71995 0.19299,0.19298 0.9244,-0.37997 2.41086,-1.88857 1.17361,-1.19108 2.28865,-2.11466 2.47787,-2.0524 0.18922,0.0623 0.60937,0.5802 0.93367,1.15097 1.11019,1.95395 1.69236,4.1189 1.84562,6.86341 0.16988,3.04201 0.0587,3.25428 -1.82957,3.49428 -2.39565,0.30449 -2.27184,1.20735 0.14846,1.08265 l 1.6271,-0.0838 -0.0774,1.5875 c -0.0426,0.87312 -0.30954,3.43297 -0.59329,5.68854 -0.39424,3.13397 -0.62188,4.17903 -0.96536,4.43177 -0.42707,0.31425 -1.98135,0.47386 -3.12646,0.32106 -1.16644,-0.15565 -1.53909,-0.10781 -1.65017,0.21187 -0.15028,0.43251 1.30934,1.03973 3.05636,1.27148 0.74949,0.0994 1.46638,0.31453 1.59308,0.47803 0.1291,0.16657 0.13373,1.28595 0.0105,2.54621 -0.12091,1.23692 -0.29339,3.29885 -0.3833,4.58205 -0.0977,1.39455 -0.28635,2.37382 -0.46894,2.43434 -0.16801,0.0557 -0.81101,0.23063 -1.42888,0.38879 -1.47152,0.37666 -2.18389,1.16014 -2.18389,2.4019 0,1.10548 0.66863,1.93934 0.95554,1.19165 0.31026,-0.80851 3.2666,-1.95713 3.28239,-1.27529 0.0249,1.07379 0.93489,4.10196 1.61776,5.38316 1.01466,1.90369 2.27501,3.04594 4.65213,4.21619 2.52877,1.24491 4.71885,1.37075 6.89098,0.39596 0.89031,-0.39955 1.82155,-0.65035 2.09388,-0.56391 0.53056,0.16839 2.48451,1.94394 3.4836,3.16555 0.41396,0.50615 0.7069,0.66893 0.88441,0.49142 0.40105,-0.40105 -0.15549,-1.28921 -1.99631,-3.18583 l -1.62376,-1.67297 2.24178,-2.1384 c 2.44945,-2.33647 4.12504,-3.64378 4.6703,-3.64378 0.47874,0 1.23447,1.53003 1.06874,2.16376 -0.16438,0.62861 0.56106,0.98546 0.92391,0.45448 0.13879,-0.2031 0.19173,-1.10334 0.11763,-2.00053 -0.0941,-1.13991 -0.0332,-1.71549 0.20231,-1.91095 0.18536,-0.15383 1.1622,-0.47473 2.17076,-0.7131 1.45582,-0.34407 2.7125,-0.40596 6.09753,-0.30027 2.36627,0.0739 4.51001,0.2649 4.81707,0.42923 0.66331,0.35499 1.07958,1.69482 0.90216,2.9037 -0.10912,0.74347 -0.0546,0.86331 0.35645,0.78415 0.52233,-0.1006 0.8368,-0.90841 0.87895,-2.25787 0.0145,-0.46436 0.14373,-0.91681 0.28717,-1.00546 0.29534,-0.18253 7.76487,0.91572 8.2446,1.21221 0.74895,0.46288 -10.83246,13.29056 -18.67697,20.6868 -30.71658,28.96129 -65.10144,46.11029 -100.95342,50.34921 -4.15875,0.4917 -18.0511,0.72604 -22.03003,0.3716 z M 64.099308,330.00212 c -3.534857,-7.41994 -5.678013,-14.10124 -7.173074,-22.36209 -0.659163,-3.64216 -1.325931,-9.31296 -1.325931,-11.27692 0,-1.00218 -0.130039,-1.59851 -0.396875,-1.81996 -0.58862,-0.48851 -0.58862,-10.62399 0,-11.1125 0.265991,-0.22075 0.397809,-0.82041 0.399708,-1.81833 0.0073,-3.82999 1.457031,-14.07222 2.925931,-20.67125 5.793504,-26.02732 19.484462,-52.77243 38.826496,-75.84707 17.805197,-21.24122 39.156227,-38.53783 62.358277,-50.51688 19.36441,-9.9977 37.41771,-15.603 56.75313,-17.62107 5.07561,-0.52975 19.02076,-0.45108 23.81249,0.13435 14.42939,1.76288 27.41805,6.3151 37.80648,13.25028 5.56916,3.71791 11.67061,8.92039 11.67061,9.95111 0,1.12668 -4.9049,12.6315 -7.33176,17.1972 -12.65895,23.81556 -31.0368,43.80675 -55.12494,59.96423 -15.22633,10.21329 -29.6829,17.30394 -51.18184,25.10365 -18.2304,6.61389 -32.12922,13.08497 -46.16979,21.49595 -21.45371,12.85181 -39.05965,28.91546 -51.183694,46.69998 -3.747854,5.49766 -6.363326,10.0057 -9.591829,16.53254 -1.67358,3.38336 -3.131566,6.15156 -3.239968,6.15156 -0.108402,0 -0.933442,-1.54565 -1.833421,-3.43478 z m 65.576382,-7.2147 c -3.54218,-1.78945 -3.31048,-6.7497 0.39387,-8.43236 1.31493,-0.59729 2.50099,-0.6248 3.78615,-0.0878 2.88143,1.20393 3.85229,4.18372 2.20793,6.77661 -1.39073,2.19296 -4.05754,2.92086 -6.38795,1.74357 z m 24.87878,-6.59816 c -2.53976,-0.44567 -4.49792,-2.74956 -4.49792,-5.29205 0,-5.71645 7.42799,-8.09867 10.70388,-3.43283 0.71771,1.02225 0.8055,1.35593 0.8055,3.06203 0,1.64734 -0.10194,2.0688 -0.72987,3.01766 -1.37213,2.07343 -3.77461,3.08512 -6.28159,2.64519 z M 133.2552,282.10724 c -0.0901,-0.14579 0.11674,-0.37175 0.45966,-0.50213 0.34292,-0.13038 1.74907,-0.92107 3.12477,-1.75709 4.79601,-2.91456 10.64225,-6.20695 11.02156,-6.20695 1.62179,0 -3.01214,3.12689 -10.55848,7.12467 -3.02999,1.60519 -3.73925,1.84026 -4.04751,1.3415 z m 132.03651,-4.54993 c -0.6713,-0.18658 -1.54267,-0.78507 -2.4192,-1.6616 -1.13947,-1.13947 -1.41859,-1.61138 -1.65884,-2.8045 -1.08502,-5.3885 5.02562,-8.93922 9.21409,-5.35405 3.27155,2.80033 2.84018,7.60395 -0.85442,9.5145 -1.00576,0.5201 -2.99829,0.66234 -4.28163,0.30565 z m 29.09651,-6.29512 c -0.19471,-0.31505 0.30495,-1.06071 0.71079,-1.06071 0.35143,0 0.14856,1.12712 -0.22499,1.25002 -0.16856,0.0555 -0.38717,-0.0297 -0.4858,-0.18931 z m -0.79646,-2.18518 c -0.8007,-2.26468 -0.85762,-5.85356 -0.13021,-8.20866 0.71094,-2.30175 0.89851,-2.42896 3.10472,-2.1056 1.91609,0.28084 2.18611,0.23863 2.18611,-0.34172 0,-0.24662 -0.44469,-0.43114 -1.3183,-0.54703 -2.06252,-0.2736 -2.12368,-0.61587 -0.43777,-2.44972 0.80025,-0.87047 1.6418,-1.94391 1.87011,-2.38543 0.57532,-1.11253 0.51861,-2.58351 -0.14073,-3.65034 -0.53254,-0.86168 -2.58535,-2.42977 -4.40508,-3.36495 -0.61939,-0.31831 -0.8599,-0.62502 -0.8599,-1.09658 0,-0.7074 -0.27805,-0.80767 -1.06772,-0.38505 -0.40076,0.21448 -1.3304,-0.0943 -4.54666,-1.50989 -5.79519,-2.55076 -10.92207,-5.18211 -10.92207,-5.6057 0,-0.20003 1.16085,-1.02921 2.57968,-1.84263 2.428,-1.39196 3.17872,-2.15931 2.11251,-2.15931 -0.25696,0 -1.71547,0.7124 -3.24115,1.58311 -1.52568,0.87071 -2.9269,1.58508 -3.11381,1.5875 -0.64931,0.008 -3.93387,-3.5946 -5.29876,-5.81247 -1.4916,-2.42378 -1.61232,-2.90191 -0.90983,-3.6038 1.15619,-1.15523 2.1779,-2.67132 2.18024,-3.23524 0.004,-0.8609 -0.37736,-0.64599 -1.52336,0.8594 -0.54318,0.71353 -1.20574,1.42722 -1.47234,1.58597 -0.55578,0.33096 -0.42662,0.47668 -2.81651,-3.17783 -2.51495,-3.84574 -4.29767,-5.13691 -7.62594,-5.52319 -0.90229,-0.10472 -1.64053,-0.27986 -1.64053,-0.3892 0,-0.10934 1.33946,-1.38881 2.97657,-2.84327 15.66609,-13.91825 29.68714,-31.99199 38.95874,-50.21952 1.33237,-2.61937 2.75753,-5.52884 3.16703,-6.46549 l 0.74454,-1.70299 0.53351,0.64466 c 1.33401,1.61193 5.33762,11.00113 6.90673,16.19754 1.92767,6.38385 3.43574,14.59456 3.77741,20.56619 0.11111,1.94204 0.28496,3.00773 0.52284,3.20516 0.55168,0.45785 0.51454,10.61825 -0.0405,11.07889 -0.26599,0.22075 -0.39781,0.82041 -0.39971,1.81833 -0.007,3.81929 -1.43219,13.89334 -2.93671,20.76216 -0.92657,4.23022 -3.18542,12.23376 -4.6041,16.31326 -1.51297,4.35061 -4.67359,12.18212 -6.68494,16.56421 -1.0089,2.19808 -1.90594,4.28167 -1.99343,4.63021 -0.11666,0.46477 -0.50665,0.75714 -1.46289,1.09672 -1.5498,0.55038 -1.87254,0.57143 -2.0278,0.1323 z m -48.94667,-7.57768 c -1.28084,-0.59115 -2.08693,-1.42876 -2.6332,-2.73619 -0.53471,-1.27974 -0.50941,-2.2067 0.0967,-3.54133 1.3268,-2.92171 5.06792,-3.65904 7.48756,-1.47569 2.28715,2.06381 2.41665,5.00724 0.30708,6.97968 -1.45028,1.356 -3.38074,1.63999 -5.25811,0.77353 z m -12.03854,-26.7094 c 0,-0.32295 4.17878,-3.21761 4.64499,-3.21761 0.31314,0 1.17584,1.64913 1.17584,2.24773 0,0.46925 -1.38508,0.85601 -3.9026,1.08974 -1.35111,0.12545 -1.91823,0.09 -1.91823,-0.11986 z m 6.94463,-1.69626 c -0.46237,-0.57942 -1.15895,-2.07818 -1.07372,-2.31019 0.0452,-0.12308 1.61847,-1.31388 3.49612,-2.64622 3.40377,-2.41524 3.41546,-2.42088 3.9384,-1.89794 0.52293,0.52294 0.52266,0.52745 -0.0913,1.52092 -1.10792,1.79265 -3.08571,3.97763 -4.37118,4.82909 -1.41707,0.93863 -1.52818,0.96815 -1.89829,0.50434 z m 6.91951,-7.9142 c -0.21297,-0.3446 0.79956,-1.28007 1.3855,-1.28007 0.31474,0 0.30899,0.12643 -0.0361,0.79375 -0.42192,0.8159 -1.01386,1.02923 -1.3494,0.48632 z"
         id="path52"
         inkscape:connector-curvature="0" />
      <path
         style="fill:#4c3d19;stroke-width:0.26458332"
         d="m 131.99527,373.91205 c -10.50013,-0.93476 -19.78803,-3.14721 -28.49341,-6.78737 -7.767391,-3.24794 -16.450476,-8.85675 -22.402745,-14.47096 l -2.310373,-2.17916 0.734857,-2.36727 c 3.590997,-11.56803 11.422618,-25.54193 20.233042,-36.10164 2.397569,-2.8736 7.504539,-8.46667 7.730829,-8.46667 0.30138,0 1.0295,3.52793 1.0295,4.98815 v 1.31182 l -2.06946,-0.14185 c -2.26782,-0.15544 -3.22221,0.1365 -3.22221,0.98563 0,0.74813 0.80462,1.05834 2.74512,1.05834 0.94686,0 1.79223,0.11433 1.87859,0.25407 0.24491,0.39626 -1.24193,3.12593 -2.9658,5.44493 -1.97804,2.66089 -5.863876,7.37002 -6.176243,7.4848 -0.130114,0.0478 -0.375412,-0.21779 -0.545105,-0.59023 -0.366546,-0.80448 -1.160531,-1.12129 -1.696132,-0.67678 -0.520375,0.43187 -0.483807,0.9395 0.164092,2.27788 l 0.548272,1.13258 -0.820846,1.19305 c -2.140228,3.11072 -3.156717,6.40002 -2.673736,8.65207 0.633642,2.95458 3.481011,6.63729 5.697296,7.36873 1.697272,0.56015 4.602362,0.19867 8.428762,-1.04876 1.86651,-0.6085 3.54188,-1.04949 3.72305,-0.97996 0.18117,0.0695 0.65793,1.15776 1.05947,2.4183 0.74097,2.32613 1.1729,2.84408 1.88137,2.2561 0.67018,-0.5562 0.3873,-2.40045 -0.778,-5.07212 -0.15373,-0.35245 0.0163,-0.50487 0.8195,-0.73475 1.53381,-0.43897 6.16427,-1.10602 6.45034,-0.92922 0.13842,0.0855 0.25167,0.57149 0.25167,1.07988 0,1.37846 0.78105,4.55018 1.23141,5.00054 1.00286,1.00286 1.91146,-0.0844 1.39026,-1.66368 -0.17667,-0.53534 -0.40009,-1.73529 -0.49648,-2.66657 l -0.17526,-1.69324 1.73702,0.15731 c 1.35238,0.12248 2.32482,0.44817 4.39165,1.47085 1.46005,0.72245 2.87103,1.55265 3.13551,1.8449 0.46644,0.51541 0.46033,0.5762 -0.20365,2.02653 -0.52392,1.14439 -0.6211,1.61368 -0.41422,2.00024 0.51969,0.97106 1.29911,0.56282 2.23007,-1.16805 0.28776,-0.53501 0.6112,-0.97274 0.71877,-0.97274 0.48244,0 7.88617,6.88237 7.88617,7.33083 0,0.66646 -0.83142,2.04696 -1.75765,2.91845 -0.77002,0.72451 -0.86643,0.93866 -0.62538,1.38906 0.49587,0.92656 1.4375,0.64509 3.15193,-0.94216 l 1.5928,-1.47466 2.47267,2.06997 c 1.35996,1.13849 2.91807,2.42716 3.46247,2.86372 l 0.98979,0.79375 -0.57984,1.35368 c -0.39808,0.92935 -0.52184,1.58475 -0.39483,2.09082 0.26118,1.04062 1.63116,2.24404 2.55463,2.24404 0.87925,0 1.39277,-0.70134 1.01187,-1.38197 -0.20272,-0.36223 -0.0643,-2.58678 0.16097,-2.58678 0.0361,0 0.70545,0.28069 1.48754,0.62374 3.57337,1.56742 6.44383,1.59777 9.55516,0.10102 1.05654,-0.50827 2.4165,-1.3558 3.02212,-1.8834 1.33414,-1.16228 2.47075,-3.33711 2.47075,-4.72764 0,-0.92167 0.0921,-1.05837 0.95645,-1.41952 0.52606,-0.2198 1.85145,-0.5 2.94533,-0.62267 2.06933,-0.23207 2.59294,-0.56715 2.15753,-1.38071 -0.38303,-0.71571 -1.46591,-0.86665 -3.78873,-0.52809 -1.15518,0.16837 -2.15256,0.25391 -2.21637,0.19009 -0.17652,-0.17652 -0.83571,-5.41329 -0.84223,-6.69084 -0.005,-1.00757 0.0593,-1.12448 0.62004,-1.12448 0.34418,0 0.92851,0.23813 1.29851,0.52917 0.88415,0.69548 1.19901,0.66755 1.56646,-0.13891 0.27204,-0.59707 0.21149,-0.76393 -0.56958,-1.56979 -0.48068,-0.49594 -1.21552,-1.04319 -1.63298,-1.2161 -0.881,-0.36493 -0.91905,-0.62835 -0.31245,-2.16307 0.85674,-2.16763 4.17125,-6.95077 5.97394,-8.62097 0.61702,-0.57167 0.7192,-0.58744 1.55178,-0.23942 0.49019,0.20489 1.05466,0.56958 1.25438,0.8104 0.44016,0.53075 1.51117,0.57719 1.7043,0.0739 0.19252,-0.50171 -0.48729,-1.76959 -1.31353,-2.44981 -0.37732,-0.31063 -0.64178,-0.68503 -0.58768,-0.83198 0.0541,-0.14696 1.67999,-1.89365 3.61308,-3.88154 l 3.51471,-3.61435 1.64466,0.64539 c 1.91731,0.75238 3.44931,1.06395 4.14533,0.84304 1.20872,-0.38364 0.77742,-1.98847 -0.53439,-1.98847 -0.43628,0 -1.39101,-0.30291 -2.12162,-0.67314 l -1.32838,-0.67314 1.94794,-2.17113 c 1.07137,-1.19412 2.39657,-2.73027 2.94489,-3.41367 0.89328,-1.11333 1.06542,-1.2165 1.65551,-0.99215 1.38326,0.52592 2.30528,-0.85897 1.10325,-1.65709 l -0.57901,-0.38445 0.54508,-0.7723 c 2.83236,-4.01307 3.86945,-9.56129 2.46631,-13.19433 -0.69342,-1.79541 -2.32621,-3.68356 -4.25659,-4.92228 -1.13579,-0.72883 -1.25845,-0.89384 -1.0098,-1.35844 0.15566,-0.29085 0.21109,-0.8154 0.12319,-1.16564 -0.24015,-0.95682 -1.3414,-0.86438 -1.86954,0.15693 -0.47832,0.92496 -0.38611,0.91135 -2.6373,0.38927 -1.42762,-0.33109 -6.59793,-1.15978 -7.35072,-1.17817 -0.10914,-0.003 -0.19844,-0.69541 -0.19844,-1.53943 0,-1.58583 -0.29649,-2.16959 -1.10194,-2.16959 -0.64803,0 -1.01473,0.80643 -1.01473,2.23157 0,0.66441 -0.11984,1.20802 -0.26632,1.20802 -0.49865,0 -5.47069,-0.78136 -6.83804,-1.0746 -1.54836,-0.33207 -1.58287,-0.42812 -0.9151,-2.54654 0.40742,-1.29249 0.41004,-1.45584 0.0295,-1.83638 -0.75009,-0.7501 -1.47018,-0.22525 -1.97246,1.43767 -0.25024,0.82847 -0.5415,1.60907 -0.64724,1.73467 -0.26806,0.31839 -2.98022,-0.96902 -4.52794,-2.14933 -0.70871,-0.54047 -1.71565,-1.60278 -2.23764,-2.36069 l -0.94907,-1.37801 1.35695,-1.52246 c 1.46053,-1.63868 1.65946,-2.29465 0.83043,-2.73833 -0.44453,-0.23791 -0.71233,-0.11051 -1.71979,0.81814 -0.6563,0.60496 -1.19328,1.03301 -1.19328,0.95123 0,-0.0818 -0.17688,-0.98957 -0.39307,-2.01731 -0.90213,-4.28855 -3.01551,-5.71995 -6.72108,-4.55219 -2.39095,0.75347 -1.73898,0.30866 2.08707,-1.42392 1.81901,-0.82372 5.15276,-2.33207 7.40833,-3.35188 5.31664,-2.40382 11.54831,-4.88963 19.44688,-7.75734 10.63627,-3.86168 21.56635,-8.31695 24.72086,-10.07661 l 1.17295,-0.6543 1.2083,1.16407 c 0.66457,0.64024 2.30828,1.96227 3.65269,2.93784 2.44173,1.77184 2.44398,1.77454 2.06788,2.48241 -0.20708,0.38976 -0.86625,1.29404 -1.46482,2.00951 -1.25584,1.5011 -1.33222,2.35692 -0.2218,2.48523 0.70848,0.0819 1.20835,-0.41586 3.26366,-3.24964 l 0.53306,-0.73496 2.0484,1.91298 c 1.12662,1.05214 2.29592,2.2606 2.59844,2.68545 l 0.55005,0.77246 -2.13932,2.26004 c -2.18607,2.30943 -2.52975,3.05563 -1.62931,3.53753 0.54024,0.28913 1.34208,0.11734 1.34208,-0.28753 0,-0.44621 3.44977,-3.69589 3.7358,-3.51912 0.48074,0.29712 1.77546,3.45401 2.06998,5.04724 0.1538,0.83198 0.27964,2.31886 0.27964,3.30419 v 1.7915 l -0.99219,0.15273 c -2.3138,0.35617 -3.15691,1.0007 -2.4396,1.86501 0.30611,0.36884 0.65433,0.42132 1.91874,0.28916 l 1.54475,-0.16146 -0.14364,1.12208 c -0.079,0.61715 -0.33334,2.84849 -0.56521,4.95854 -0.54097,4.92305 -0.5489,4.9418 -2.14864,5.08505 -0.70139,0.0628 -1.55887,0.0129 -1.90551,-0.11092 -1.12926,-0.40333 -2.08573,0.27588 -1.72227,1.22302 0.19239,0.50137 1.84987,1.14383 3.52382,1.36588 1.0765,0.14281 1.33053,0.268 1.23348,0.60789 -0.0672,0.23542 -0.19228,1.4996 -0.27791,2.80929 -0.0856,1.30969 -0.22043,3.11332 -0.29957,4.00806 l -0.14387,1.62682 -1.20474,0.30335 c -1.74601,0.43966 -2.72764,1.51795 -2.72764,2.99624 0,1.81967 1.17694,2.6537 1.99117,1.41104 0.44653,-0.68149 1.87619,-1.40697 2.17795,-1.10521 0.10088,0.10088 0.32499,0.87748 0.49803,1.72579 0.7274,3.56601 2.99331,6.41845 6.36588,8.01367 1.55256,0.73436 2.08948,0.85194 3.91593,0.85752 1.69157,0.005 2.34413,-0.11309 3.24929,-0.58884 0.62294,-0.32743 1.32045,-0.59532 1.55002,-0.59532 0.22957,0 1.2992,0.89623 2.37696,1.99162 1.7048,1.73269 2.02786,1.95507 2.48488,1.71048 1.00017,-0.53527 0.52975,-1.58754 -1.7826,-3.98741 l -1.42212,-1.47595 2.64468,-2.34212 c 1.45458,-1.28816 2.8488,-2.45634 3.09827,-2.59596 0.62231,-0.34825 1.15331,0.41847 1.10885,1.60108 -0.0472,1.25681 0.60356,1.69171 1.52401,1.01842 0.42568,-0.31138 0.51526,-0.70765 0.52334,-2.31511 l 0.01,-1.93942 1.04858,-0.3953 c 0.7967,-0.30035 2.26982,-0.39568 6.13246,-0.39688 6.01133,-0.002 6.06127,0.0181 5.97778,2.38888 -0.0417,1.18435 0.0404,1.4926 0.45696,1.71554 0.77188,0.4131 1.52012,-0.4978 1.73413,-2.11111 0.0973,-0.73338 0.24363,-1.33342 0.3252,-1.33342 0.39975,0 7.07268,1.12374 7.1582,1.20546 0.12159,0.11618 -2.77769,3.62937 -5.77401,6.99662 -12.64383,14.20907 -25.85672,25.62662 -41.81489,36.13318 -14.10377,9.28565 -27.48147,15.78063 -42.70652,20.73434 -9.86218,3.20882 -18.18924,5.03852 -28.46886,6.25545 -4.15627,0.49203 -18.29237,0.72722 -22.29461,0.37093 z M 65.04695,330.89818 c -3.453078,-6.8569 -6.081164,-14.90441 -7.587576,-23.23406 -0.647728,-3.58159 -1.326572,-9.29265 -1.33928,-11.26726 -0.0085,-1.31872 -0.705376,-3.38048 -0.805426,-2.38288 -0.13464,1.34252 -0.477619,-2.26743 -0.477619,-5.02708 0,-2.75965 0.342979,-6.3696 0.477619,-5.02708 0.09962,0.99328 0.79719,-1.06188 0.808259,-2.38125 0.01846,-2.20063 0.714385,-8.34087 1.467949,-12.95193 3.569336,-21.84077 12.567477,-43.82257 26.702584,-65.23245 20.82037,-31.53577 50.61402,-57.22557 84.16358,-72.57068 15.71645,-7.18849 31.73979,-11.64015 48.00993,-13.33829 5.07561,-0.52975 19.02076,-0.45108 23.81249,0.13434 14.56461,1.7794 26.90813,6.10062 37.50819,13.13084 5.97679,3.96397 11.43973,8.5548 11.43973,9.61348 0,1.35617 -5.04859,12.93134 -7.98853,18.31573 -12.81975,23.47889 -30.32601,42.33439 -54.08808,58.25679 -15.62023,10.46674 -29.4093,17.24642 -51.03276,25.0913 -12.17785,4.41806 -20.59787,7.98037 -30.1625,12.76102 -21.12302,10.55783 -36.13933,21.07391 -50.454438,35.33374 -11.939981,11.89388 -20.070549,23.18273 -27.087685,37.6098 l -2.437277,5.01098 z m 65.25888,-8.06907 c -0.45816,-0.13273 -1.1958,-0.65452 -1.63921,-1.15953 -2.16066,-2.46086 -1.35672,-5.70275 1.75561,-7.07947 3.04795,-1.34826 6.39392,1.03579 6.07737,4.33021 -0.28095,2.92393 -3.21083,4.77293 -6.19377,3.90879 z m 23.05801,-7.29435 c -1.87866,-0.9904 -3.0263,-2.77936 -3.0369,-4.73393 -0.008,-1.53811 1.09849,-3.59879 2.42773,-4.51995 0.98695,-0.68396 1.30488,-0.75752 3.27397,-0.75752 2.03433,0 2.2492,0.0544 3.19762,0.80909 4.22454,3.36172 1.81893,9.67297 -3.67111,9.63136 -0.76866,-0.006 -1.75475,-0.1989 -2.19131,-0.42905 z m -14.15521,-36.43127 c 0,-0.22325 5.84307,-3.6763 5.98339,-3.53598 0.0707,0.0707 -0.85965,0.69287 -2.0675,1.38255 -1.20785,0.68968 -2.58305,1.48716 -3.05599,1.77219 -0.47294,0.28502 -0.8599,0.45658 -0.8599,0.38124 z m 126.42335,-1.87694 c -2.56814,-0.66211 -4.18585,-2.7498 -4.18585,-5.40195 0,-3.01972 2.15182,-5.13829 5.21893,-5.13829 1.83371,0 3.65071,0.93424 4.68833,2.4106 1.39046,1.97838 1.23742,4.94881 -0.34802,6.75512 -1.12151,1.27776 -3.44419,1.8719 -5.37339,1.37452 z m 28.12473,-9.52348 c -0.41953,-1.6661 -0.36671,-4.98479 0.10487,-6.58899 0.63872,-2.17278 0.58627,-2.13908 2.81209,-1.80698 1.74758,0.26074 1.99477,0.24236 2.41974,-0.17994 0.27866,-0.27691 0.40386,-0.6514 0.30441,-0.91056 -0.17379,-0.45288 -1.62572,-0.97561 -2.71712,-0.97822 -0.55912,-0.001 -0.4894,-0.14304 0.74917,-1.52283 3.12069,-3.47652 3.18268,-5.67408 0.22726,-8.05665 -0.63454,-0.51155 -1.71926,-1.25598 -2.41048,-1.65431 -0.93434,-0.53842 -1.25677,-0.8829 -1.25677,-1.34271 0,-0.72785 -0.79572,-1.07789 -1.54217,-0.67841 -0.55367,0.29632 -1.77388,-0.1676 -8.13484,-3.09288 -4.69987,-2.16138 -6.72716,-3.20064 -6.72716,-3.4486 0,-0.11448 0.88235,-0.71015 1.96076,-1.32373 2.75408,-1.56695 3.17263,-1.94212 2.94982,-2.64414 -0.26803,-0.84448 -1.06733,-0.72448 -3.19078,0.47902 -1.01865,0.57734 -2.36926,1.31901 -3.00136,1.64817 l -1.14927,0.59846 -1.89911,-1.983 c -1.04451,-1.09064 -2.46589,-2.92712 -3.15864,-4.08105 l -1.25953,-2.09806 1.01993,-1.07694 c 1.84474,-1.94784 2.46035,-3.58625 1.48774,-3.95948 -0.60831,-0.23342 -1.00814,0.0738 -2.02963,1.55962 -1.07442,1.56277 -1.56962,1.7436 -2.02084,0.73792 -0.66108,-1.4734 -2.73774,-4.29363 -4.13384,-5.61401 -1.47638,-1.3963 -3.35127,-2.38614 -4.58104,-2.41855 -1.73375,-0.0457 -1.67124,-0.30398 0.5397,-2.23036 3.29847,-2.87392 11.39654,-10.99423 14.90801,-14.94896 10.46204,-11.78264 18.8629,-24.16958 25.34068,-37.36444 1.48025,-3.01518 2.76739,-5.48573 2.86032,-5.4901 0.25037,-0.0118 2.11871,3.6839 3.54059,7.0035 3.63555,8.4878 6.38004,20.05713 6.91009,29.12936 0.16478,2.82019 0.43298,3.96127 0.86788,3.69248 0.33084,-0.20447 0.55314,1.99134 0.53141,5.24894 -0.0226,3.39433 -0.26561,5.37809 -0.63547,5.1886 -0.41138,-0.21077 -0.61255,0.91921 -0.91853,5.15937 -1.10603,15.32702 -6.13101,33.56646 -13.88287,50.39143 -1.10331,2.39466 -2.00602,4.49683 -2.00602,4.67148 0,0.23218 -2.02349,1.16105 -2.52926,1.16105 -0.0296,0 -0.18695,-0.52898 -0.34974,-1.1755 z m -48.58245,-6.2497 c -2.59388,-0.76378 -3.96381,-4.38343 -2.53437,-6.69632 0.66334,-1.07331 2.42525,-2.02068 3.74238,-2.01225 1.06703,0.007 2.83448,0.76287 3.47825,1.48786 0.63649,0.71679 1.26686,2.31837 1.26686,3.21871 0,1.30404 -1.0935,2.9988 -2.37067,3.67418 -1.19653,0.63274 -2.22675,0.72701 -3.58245,0.32782 z m -11.47091,-27.0973 c 0.18959,-0.18959 3.40465,-2.25458 3.51023,-2.25458 0.15727,0 0.76154,1.59878 0.64741,1.71292 -0.11926,0.11926 -3.31028,0.66313 -3.90948,0.66633 -0.20615,0.001 -0.31782,-0.055 -0.24816,-0.12467 z m 5.68489,-2.42561 c -0.25304,-0.53062 -0.36439,-1.04702 -0.24744,-1.14754 0.11694,-0.10054 1.28419,-0.93614 2.59387,-1.8569 1.30969,-0.92076 2.65072,-1.91488 2.98007,-2.20915 0.45018,-0.40224 0.6741,-0.45976 0.90213,-0.23173 0.22802,0.22802 0.11718,0.58507 -0.44655,1.43847 -1.37456,2.08088 -4.41298,4.97163 -5.22559,4.97163 -0.053,0 -0.30345,-0.43415 -0.55649,-0.96478 z"
         id="path50"
         inkscape:connector-curvature="0" />
    </g>
    <path
       style="fill:#000000;stroke-width:0.71428573"
       d="m 282.62897,572.38039 c -8.51476,-4.82274 -10.15535,-16.02626 -3.43593,-23.46385 3.72431,-4.12237 5.68284,-4.91119 12.19369,-4.91119 4.68128,0 6.05364,0.27596 8.04465,1.6177 7.88523,5.31386 9.42282,16.19881 3.27697,23.19855 -3.13535,3.57096 -7.00048,5.15155 -12.60909,5.15631 -3.4982,0.003 -5.33993,-0.39089 -7.47029,-1.59752 z"
       id="path3781"
       inkscape:connector-curvature="0"
       transform="matrix(0.26458333,0,0,0.26458333,6.2874864,50.81655)" />
    <path
       style="fill:#000000;stroke-width:0.71428573"
       d="m 216.8717,593.76377 c -5.19399,-2.35843 -8.93958,-9.46959 -7.58047,-14.39186 2.04757,-7.41569 10.86997,-12.19716 17.72582,-9.60684 7.44791,2.81402 10.36033,11.79694 6.03569,18.61619 -3.2562,5.1345 -11.03132,7.72084 -16.18104,5.38251 z"
       id="path3783"
       inkscape:connector-curvature="0"
       transform="matrix(0.26458333,0,0,0.26458333,6.2874864,50.81655)" />
    <path
       style="fill:#000000;stroke-width:0.71428573"
       d="m 602.96744,461.36404 c -11.21395,-5.91026 -11.51515,-21.85413 -0.51884,-27.46403 2.28832,-1.16742 3.87316,-1.41537 7.67397,-1.2006 6.57283,0.37139 10.90396,3.03343 13.76409,8.45982 1.82347,3.45957 2.02386,4.4494 1.71414,8.46708 -0.63704,8.26373 -5.42864,12.89178 -13.95219,13.47596 -4.22499,0.28957 -5.2066,0.093 -8.68117,-1.73823 z"
       id="path3785"
       inkscape:connector-curvature="0"
       transform="matrix(0.26458333,0,0,0.26458333,6.2874864,50.81655)" />
    <path
       style="fill:#000000;stroke-width:0.71428573"
       d="m 547.6662,417.5473 c -2.94531,-0.88104 -6.634,-4.70739 -8.00908,-8.30798 -1.43787,-3.76502 -1.01081,-8.89619 0.96259,-11.56557 3.24861,-4.39434 10.24302,-6.37485 15.37815,-4.35443 5.96426,2.34666 10.06847,9.64155 8.45476,15.02765 -2.1596,7.20809 -9.67551,11.32742 -16.78642,9.20033 z"
       id="path3787"
       inkscape:connector-curvature="0"
       transform="matrix(0.26458333,0,0,0.26458333,6.2874864,50.81655)" />
  </g>
</svg>
